<svg width="512" height="512" viewBox="0 0 512 512" xmlns="http://www.w3.org/2000/svg" role="img" aria-label="Vitaledge">
  <rect width="512" height="512" rx="112" fill="#F8434D"/>
  <path
    fill-rule="evenodd"
    clip-rule="evenodd"
    d="M219.07 106.3c-1.49-11.84-11.47-21-23.56-21-13.12 0-23.75 10.78-23.75 24.08v41.87c0 13.3 10.63 24.08 23.75 24.08 11.99 0 21.9-9 23.52-20.7 8.34 1.39 14.7 8.72 14.7 17.56v83.76c0 44.51-35.6 80.6-79.52 80.6s-79.52-36.09-79.52-80.6v-83.76c0-8.84 6.36-16.17 14.7-17.56 1.62 11.7 11.54 20.7 23.52 20.7 13.12 0 23.75-10.78 23.75-24.08v-41.87c0-13.3-10.63-24.08-23.75-24.08-12.09 0-22.07 9.16-23.56 21-34.6 1.54-62.18 30.44-62.18 65.89v83.76c0 62.88 44.48 115.23 103.28 126.5v30.52c0 76.9 61.52 139.24 137.39 139.24s137.39-62.34 137.39-139.24v-.73c30-10.09 51.65-38.77 51.65-72.57 0-42.2-33.76-76.42-75.4-76.42s-75.4 34.22-75.4 76.42c0 33.8 21.65 62.48 51.65 72.57v.73c0 50.3-40.23 91.08-89.89 91.08s-89.89-40.78-89.89-91.08v-30.52c58.8-11.27 103.28-63.62 103.28-126.5v-83.76c0-35.45-27.58-64.35-62.18-65.89ZM383.48 311.4c-15.4 0-27.88 12.66-27.88 28.28 0 15.61 12.48 28.27 27.88 28.27s27.88-12.66 27.88-28.27c0-15.62-12.48-28.28-27.88-28.28Z"
    fill="white"
  />
</svg>
