<svg width="1009" height="158" viewBox="0 0 1009 158" fill="none" xmlns="http://www.w3.org/2000/svg">
<g clip-path="url(#clip0_194_605)">
<path d="M219.416 104.117L252.681 22.9819H282.374L235.243 127.911H202.958L155.897 22.9819H186.501L219.416 104.117Z" fill="#FF5453"/>
<path d="M296.24 21.9443H322.642V39.5824H296.24V21.9443ZM296.381 51.2029H322.292V127.911H296.381V51.2029Z" fill="#FF5453"/>
<path d="M355.277 101.281V68.9795H339.52V51.203H355.277V30.729H381.189V51.1339H407.241V68.9103H381.189V100.175C381.189 103.979 382.169 106.746 384.13 108.406C386.091 110.066 389.172 110.896 393.374 110.896C397.576 110.896 401.778 110.204 406.47 108.821L409.902 125.836C406.05 127.012 402.268 127.842 398.557 128.396C394.845 128.949 390.713 129.226 386.161 129.226C375.236 129.226 367.323 127.012 362.49 122.516C357.658 118.09 355.207 110.965 355.207 101.143L355.277 101.281Z" fill="#FF5453"/>
<path d="M423.348 106.469C423.348 98.1691 427.13 91.8747 434.763 87.7246C442.397 83.5744 454.162 81.2919 470.199 80.8768L489.388 80.4618V77.5567C489.388 68.9106 483.435 64.6221 471.46 64.6221C460.395 64.6221 453.812 67.458 451.641 73.1299L428.39 71.3315C431.612 56.3218 446.318 48.8516 472.44 48.8516C500.103 48.8516 513.969 59.0194 513.969 79.4243V127.912H490.228V117.744C485.676 122.032 480.704 125.145 475.311 127.082C469.919 129.019 463.756 129.918 456.823 129.918C446.108 129.918 437.844 127.912 432.102 123.831C426.359 119.75 423.418 113.94 423.418 106.4L423.348 106.469ZM447.999 104.671C447.999 110.965 453.321 114.078 463.896 114.078C468.238 114.078 472.37 113.386 476.222 112.072C480.074 110.758 483.225 108.89 485.676 106.4C488.127 103.979 489.318 100.936 489.318 97.4082V93.7423L471.67 94.1573C463.476 94.3648 457.453 95.264 453.672 96.9241C449.89 98.5841 447.999 101.143 447.999 104.533V104.671Z" fill="#FF5453"/>
<path d="M532.948 22.9819H558.859V127.911H532.948V22.9819Z" fill="#FF5453"/>
<path d="M576.017 90.4222C576.017 81.9835 578.048 74.6516 582.04 68.4264C586.032 62.2012 591.634 57.3594 598.917 53.9701C606.131 50.5116 614.535 48.8516 624.129 48.8516C638.906 48.8516 650.321 52.31 658.304 59.2269C666.288 66.1438 670.35 75.8275 670.35 88.4163V95.0565H601.018C601.719 101.558 604.1 106.331 608.022 109.374C611.943 112.487 617.406 114.009 624.269 114.009C635.684 114.009 642.687 110.896 645.208 104.602H669.439C665.097 121.756 649.76 130.333 623.569 130.333C608.582 130.333 596.957 126.805 588.623 119.819C580.289 112.833 576.157 103.08 576.157 90.4913L576.017 90.4222ZM640.166 68.9106C636.735 66.213 631.342 64.8988 623.919 64.8988C616.495 64.8988 610.893 66.4897 607.671 69.7406C604.45 72.9916 602.419 77.0034 601.579 81.776H645.909C645.489 75.8967 643.598 71.6082 640.096 68.9106H640.166Z" fill="#FF5453"/>
<path d="M680.434 90.4218C680.434 82.2598 682.185 75.1354 685.617 68.9102C689.048 62.685 693.95 57.774 700.323 54.2464C706.696 50.6496 714.19 48.8512 722.944 48.8512C735.969 48.8512 745.914 52.863 752.917 60.8866V22.9819H778.829V127.911H753.407V116.568C749.626 121.064 745.004 124.453 739.331 126.805C733.658 129.156 727.426 130.263 720.422 130.263C712.439 130.263 705.436 128.603 699.413 125.283C693.46 121.963 688.768 117.329 685.407 111.311C682.045 105.362 680.434 98.3762 680.434 90.4218ZM706.976 89.7993C706.976 96.8545 708.867 102.319 712.789 106.123C716.641 109.927 722.173 111.864 729.527 111.864C734.079 111.864 738.14 110.965 741.712 109.236C745.214 107.507 748.015 105.086 750.046 101.973C752.077 98.8604 753.127 95.4019 753.127 91.5976V87.9317C753.127 81.7756 751.096 76.7955 746.964 72.922C742.833 69.0485 737.23 67.181 730.157 67.181C722.593 67.181 716.781 69.1177 712.929 72.9912C709.007 76.8646 707.046 82.4673 707.046 89.7993H706.976Z" fill="#FF5453"/>
<path d="M868.399 120.51V112.694C860.976 120.925 850.191 125.006 835.905 125.006C827.991 125.006 821.058 123.415 815.035 120.303C809.082 117.19 804.39 112.763 800.959 107.092C797.597 101.42 795.917 94.8487 795.917 87.3784C795.917 79.9081 797.667 73.2679 801.169 67.4577C804.67 61.6475 809.573 57.0823 816.016 53.6931C822.389 50.373 829.882 48.7129 838.426 48.7129C845.219 48.7129 851.102 49.7504 856.074 51.7563C861.046 53.7622 865.388 56.8057 869.03 60.9558V51.1338H894.311V115.669C894.311 130.332 890.459 141.123 882.686 147.832C874.912 154.611 862.867 158 846.409 158C831.913 158 820.918 155.856 813.284 151.636C805.651 147.348 801.239 140.915 799.838 132.2H824.98C826.1 135.52 828.341 137.941 831.633 139.394C834.924 140.846 839.756 141.607 846.199 141.607C853.763 141.607 859.365 139.947 863.007 136.558C866.578 133.168 868.399 127.842 868.399 120.649V120.51ZM862.166 72.0229C857.895 68.5644 852.362 66.9044 845.639 66.9044C838.216 66.9044 832.543 68.6336 828.551 72.1612C824.559 75.6888 822.529 80.669 822.529 87.0326C822.529 93.3961 824.489 98.3763 828.481 101.973C832.473 105.57 837.936 107.368 845.009 107.368C852.082 107.368 857.404 105.639 861.886 102.25C866.368 98.7913 868.609 94.2261 868.609 88.4159V86.2025C868.609 80.254 866.438 75.5505 862.237 72.092L862.166 72.0229Z" fill="#FF5453"/>
<path d="M906.076 90.4222C906.076 81.9835 908.107 74.6516 912.099 68.4264C916.091 62.2012 921.693 57.3594 928.977 53.9701C936.19 50.5116 944.594 48.8516 954.188 48.8516C968.965 48.8516 980.38 52.31 988.363 59.2269C996.347 66.1438 1000.41 75.8275 1000.41 88.4163V95.0565H931.077C931.778 101.558 934.159 106.331 938.081 109.374C942.002 112.487 947.465 114.009 954.328 114.009C965.743 114.009 972.746 110.896 975.267 104.602H999.498C995.156 121.756 979.82 130.333 953.628 130.333C938.641 130.333 927.016 126.805 918.682 119.819C910.348 112.833 906.216 103.08 906.216 90.4913L906.076 90.4222ZM970.225 68.9106C966.794 66.213 961.401 64.8988 953.978 64.8988C946.554 64.8988 940.952 66.4897 937.73 69.7406C934.509 72.9916 932.478 77.0034 931.638 81.776H975.968C975.548 75.8967 973.657 71.6082 970.155 68.9106H970.225Z" fill="#FF5453"/>
</g>
<path fill-rule="evenodd" clip-rule="evenodd" d="M69.1188 12.1985C68.6499 8.47446 65.5113 5.59575 61.7094 5.5957C57.5838 5.59565 54.2393 8.98519 54.2392 13.1664L54.239 26.3318C54.239 30.5131 57.5834 33.9027 61.709 33.9028C65.479 33.9028 68.5967 31.0725 69.1062 27.3941C71.7269 27.8301 73.7264 30.1363 73.7264 32.9157V59.25C73.7264 73.2481 62.5297 84.5958 48.7179 84.5958C34.9061 84.5958 23.7094 73.2481 23.7094 59.25V32.9157C23.7094 30.1364 25.7087 27.8303 28.3292 27.3941C28.8381 31.0732 31.9561 33.9042 35.7265 33.9042C39.8521 33.9042 43.1965 30.5146 43.1965 26.3333V13.1667C43.1965 8.9854 39.8521 5.59582 35.7265 5.59582C31.9245 5.59582 28.7859 8.47447 28.3169 12.1985C17.4404 12.683 8.76929 21.7731 8.76929 32.9157V59.25C8.76929 79.0231 22.7551 95.4857 41.2478 99.0308V108.625C41.2478 132.804 60.5875 152.404 84.4443 152.404C108.301 152.404 127.641 132.804 127.641 108.625V108.396C137.075 105.224 143.88 96.2091 143.88 85.5833C143.88 72.3124 133.265 61.5542 120.171 61.5542C107.076 61.5542 96.4614 72.3124 96.4614 85.5833C96.4614 96.2091 103.266 105.224 112.701 108.396V108.625C112.701 124.441 100.05 137.262 84.4443 137.262C68.8388 137.262 56.188 124.441 56.188 108.625V99.0308C74.6807 95.4857 88.6665 79.0232 88.6665 59.25V32.9157C88.6665 21.7731 79.9954 12.683 69.1188 12.1985ZM120.171 76.6958C115.328 76.6958 111.401 80.6749 111.401 85.5833C111.401 90.4918 115.328 94.4708 120.171 94.4708C125.014 94.4708 128.94 90.4918 128.94 85.5833C128.94 80.6749 125.014 76.6958 120.171 76.6958Z" fill="#FF5453" stroke="#FF5453" stroke-width="0.5" stroke-linecap="round" stroke-linejoin="round"/>
<defs>
<clipPath id="clip0_194_605">
<rect width="844.442" height="136.056" fill="white" transform="translate(155.897 21.9443)"/>
</clipPath>
</defs>
</svg>
